####
#
# OBJ File Generated by Meshlab
#
####
# Object lowerBack1.obj
#
# Vertices: 42
# Faces: 80
#
####
mtllib ./lowerBack1.obj.mtl

vn 2.322309 3.664533 3.007393
v 0.035764 0.170559 0.079660
vn 2.322303 4.717771 -0.464630
v 0.035764 0.186497 0.027120
vn 2.322313 0.464695 4.717737
v 0.035764 0.122138 0.105542
vn 2.322283 3.007399 -3.664488
v 0.035764 0.160616 -0.021302
vn 4.835514 2.280621 1.871605
v 0.071707 0.142565 0.056685
vn 4.835502 2.936054 -0.289178
v 0.071707 0.150457 0.030669
vn 4.835525 1.871601 -2.280595
v 0.071707 0.137641 0.006693
vn 4.835452 0.289208 2.936061
v 0.071707 0.118589 0.069502
vn 6.026611 -0.000019 0.000011
v 0.078654 0.115106 0.034151
vn 4.835586 -1.871587 2.280603
v 0.071707 0.092572 0.061609
vn 2.322314 -0.464644 -4.717763
v 0.035764 0.108075 -0.037239
vn 4.835506 -0.289163 -2.936060
v 0.071707 0.111625 -0.001199
vn 4.835536 -2.280556 -1.871663
v 0.071707 0.087649 0.011616
vn 2.322299 -3.664479 -3.007379
v 0.035764 0.059653 -0.011358
vn 4.835485 -2.936053 0.289127
v 0.071707 0.079756 0.037633
vn 2.322319 -4.717748 0.464645
v 0.035764 0.043715 0.041183
vn 2.322263 -3.007353 3.664487
v 0.035764 0.069597 0.089604
vn -2.322309 3.664533 3.007393
v -0.035764 0.170559 0.079660
vn -2.322303 4.717771 -0.464630
v -0.035764 0.186497 0.027120
vn -2.322313 0.464695 4.717737
v -0.035764 0.122138 0.105542
vn -2.322283 3.007399 -3.664487
v -0.035764 0.160616 -0.021302
vn -4.835526 2.280562 1.871557
v -0.071707 0.142565 0.056685
vn -4.835514 2.935978 -0.289170
v -0.071707 0.150457 0.030669
vn -2.322314 -0.464644 -4.717764
v -0.035764 0.108075 -0.037239
vn -4.835537 1.871553 -2.280536
v -0.071707 0.137641 0.006693
vn -6.026696 -0.000019 0.000011
v -0.078653 0.115106 0.034151
vn -4.835464 0.289200 2.935985
v -0.071707 0.118589 0.069502
vn -4.835598 -1.871539 2.280544
v -0.071707 0.092572 0.061609
vn -2.322264 -3.007352 3.664487
v -0.035764 0.069597 0.089604
vn -4.835497 -2.935977 0.289119
v -0.071707 0.079756 0.037633
vn -2.322319 -4.717748 0.464645
v -0.035764 0.043715 0.041183
vn -2.322299 -3.664478 -3.007379
v -0.035764 0.059653 -0.011358
vn -4.835547 -2.280497 -1.871615
v -0.071707 0.087649 0.011616
vn -4.835518 -0.289155 -2.935985
v -0.071707 0.111625 -0.001199
vn 0.000000 -3.467200 4.224877
v 0.000000 0.065371 0.094754
vn -0.000000 0.535738 5.439040
v 0.000000 0.122791 0.112172
vn -0.000000 4.224814 3.467180
v 0.000000 0.175709 0.083886
vn 0.000000 -5.439048 0.535706
v 0.000000 0.037085 0.041836
vn 0.000000 5.439063 -0.535663
v 0.000000 0.193127 0.026467
vn 0.000000 -4.224780 -3.467208
v 0.000000 0.054504 -0.015584
vn 0.000000 -0.535684 -5.439064
v 0.000000 0.107422 -0.043869
vn -0.000000 3.467195 -4.224782
v 0.000000 0.164842 -0.026451
# 42 vertices, 0 vertices normals


usemtl material_0
f 1//1 39//39 37//37
f 36//36 1//1 37//37
f 39//39 1//1 2//2
f 1//1 36//36 3//3
f 4//4 39//39 2//2
f 39//39 4//4 42//42
f 42//42 4//4 41//41
f 2//2 1//1 5//5
f 3//3 5//5 1//1
f 4//4 2//2 6//6
f 2//2 5//5 6//6
f 4//4 6//6 7//7
f 5//5 3//3 8//8
f 9//9 6//6 5//5
f 9//9 5//5 8//8
f 9//9 7//7 6//6
f 3//3 10//10 8//8
f 9//9 8//8 10//10
f 4//4 7//7 11//11
f 4//4 11//11 41//41
f 9//9 12//12 7//7
f 7//7 12//12 11//11
f 9//9 13//13 12//12
f 13//13 11//11 12//12
f 14//14 41//41 11//11
f 11//11 13//13 14//14
f 41//41 14//14 40//40
f 14//14 38//38 40//40
f 9//9 15//15 13//13
f 9//9 10//10 15//15
f 16//16 14//14 13//13
f 16//16 13//13 15//15
f 38//38 14//14 16//16
f 15//15 10//10 17//17
f 16//16 15//15 17//17
f 17//17 38//38 16//16
f 3//3 17//17 10//10
f 38//38 17//17 35//35
f 36//36 17//17 3//3
f 17//17 36//36 35//35
f 39//39 18//18 37//37
f 37//37 18//18 36//36
f 18//18 39//39 19//19
f 18//18 20//20 36//36
f 21//21 19//19 39//39
f 42//42 21//21 39//39
f 41//41 21//21 42//42
f 19//19 22//22 18//18
f 20//20 18//18 22//22
f 21//21 23//23 19//19
f 22//22 19//19 23//23
f 21//21 41//41 24//24
f 23//23 21//21 25//25
f 24//24 25//25 21//21
f 26//26 22//22 23//23
f 26//26 23//23 25//25
f 20//20 22//22 27//27
f 26//26 27//27 22//22
f 28//28 20//20 27//27
f 26//26 28//28 27//27
f 20//20 28//28 29//29
f 29//29 36//36 20//20
f 36//36 29//29 35//35
f 35//35 29//29 38//38
f 30//30 29//29 28//28
f 26//26 30//30 28//28
f 29//29 31//31 38//38
f 29//29 30//30 31//31
f 32//32 38//38 31//31
f 38//38 32//32 40//40
f 32//32 41//41 40//40
f 41//41 32//32 24//24
f 33//33 31//31 30//30
f 31//31 33//33 32//32
f 26//26 33//33 30//30
f 32//32 33//33 24//24
f 26//26 34//34 33//33
f 24//24 33//33 34//34
f 26//26 25//25 34//34
f 25//25 24//24 34//34
# 80 faces, 0 coords texture

# End of File
